# xmcd
#
# Track frame offsets:
#	150
#	12532
#	25440
#	37230
#	47677
#	60785
#	73850
#	87380
#	98325
#	111555
#	125422
#	142520
#	155745
#	169087
#	181834
#	192567
#	206134
#	219927
#	232684
#	246515
#	259655
#	271137
#
# Disc length: 3783
#
# Revision: 4
# Processed by: cddbd v1.5.1PL0 Copyright (c) Steve Scherf et al.
# Submitted via: audiograbber 1.82.02
# Normalized: r3:DSETVAR1
#
DISCID=380ec516
DTITLE=Various Artist - Mean Old World-The Blues (1940-1994) [Volume 1]
DYEAR=1996
DGENRE=Blues
TTITLE0=Ma Rainey - Memphis Minnie
TTITLE1=Louis Jordan and his Tympany Five - I'm Gonna Move To The Outskirts Of Town
TTITLE2=Aurthur "Big Boy" Crudup - Mean Old 'Frisco Blues
TTITLE3=Leadbelly - Bourgeois Blues
TTITLE4=T-Bone Walker - Mean Old World
TTITLE5=Dinah Washington - Evil Gal Blues
TTITLE6=Cecil Grant - I Wonder
TTITLE7=Hots Lips Page - Blood On The Moon
TTITLE8=Big Maceo - Chicago Breakdown
TTITLE9=Angels in Harlem - Doctor Clayton
TTITLE10=Billie Holliday - Billie's Blues
TTITLE11=John Lee "Sonny Boy" Williamson - Hoodoo Hoodoo
TTITLE12=Roy Brown And His Mighty Men - Good Rockin Tonight
TTITLE13=Amos Milburn - Chicken Shack Boogie
TTITLE14=Charles Brown - Trouble Blues
TTITLE15=John Lee Hooker - Crawlin' Kingsnake
TTITLE16=Tampa Red - When Things Go Wrong With You (It Hurts Me Too)
TTITLE17=L'il Son Jackson - Cairo Blues
TTITLE18=Robert Nighthawk - Black Angel Blues
TTITLE19=Professor Longhair - Mardis Gras In New Orleans
TTITLE20=Lowell Fulson - Every Day I Have The Blues
TTITLE21=Johny Otis Quintette With Little Esther Phillips - Double Crossing Blues
EXTD=
EXTT0=
EXTT1=
EXTT2=
EXTT3=
EXTT4=
EXTT5=
EXTT6=
EXTT7=
EXTT8=
EXTT9=
EXTT10=
EXTT11=
EXTT12=
EXTT13=
EXTT14=
EXTT15=
EXTT16=
EXTT17=
EXTT18=
EXTT19=
EXTT20=
EXTT21=
PLAYORDER=
